<svg xmlns="http://www.w3.org/2000/svg" version="1.1" xmlns:xlink="http://www.w3.org/1999/xlink" xmlns:svgjs="http://svgjs.dev/svgjs" width="1500" height="1500" viewBox="0 0 1500 1500"><rect width="1500" height="1500" fill="#ee3e38"></rect><g transform="matrix(0.6666666666666666,0,0,0.6666666666666666,250.00007343750008,187.66666666666674)"><svg viewBox="0 0 320 360" data-background-color="#ee3e38" preserveAspectRatio="xMidYMid meet" height="1687" width="1500" xmlns="http://www.w3.org/2000/svg" xmlns:xlink="http://www.w3.org/1999/xlink"><g id="tight-bounds" transform="matrix(1,0,0,1,0.000023499999997511622,0)"><svg viewBox="0 0 320 360" height="360" width="320"><g><svg></svg></g><g><svg viewBox="0 0 320 360" height="360" width="320"><g><path transform="translate(-74.99272,-51.79039) scale(4.65793,4.65793)" d="M20.6 59.9l0.8 1-0.4-1.3c-0.1-0.6-0.8 0.1-0.4 0.3M21.5 59.3c0.3 0.5 0.6 1 0.6 1.5 0 0.7 0.6 1 1.1 1.2-0.7-0.8-1.1-3-1.7-2.7M59.9 16.9c1.7 0 3.3-0.2 5.1 0.2 4.4 1.1 8.1 3.3 10.6 6.4l7 11.2c0.3 2.8 0.9 5.9 0.8 9.3 0.7 0 0.6-1 1.4-1.2-0.8 2-1.2 4.5-1.4 7.4-0.5-1.6 0-4 0.1-5.3-0.7 1.1-1.1 0.3-1.1-0.2 0.1-0.8-0.3-0.7-0.6-1-1.1-1-1.8-2.1-2.6-3.8 0.5-1.3 0.6-3.2-1-4.2-0.5-0.3-1.1-0.8-1.4-1.6-0.4-1.1-1.1-2.4-0.9-4.1 0.1-0.5-1.5 1.1-2.4 0.4-3.9-2.7-7.8-5.8-12.5-8.4-2.5 0-4.3-0.9-5.2-2-0.8-1-0.2-2.3 1-2.4 0.7 0 1.5-0.2 2.1 0.2 0.1-0.4 0.5-0.9 1-0.9M50 14.6l0.2 0.1c1 0.2 1.5 1.6 2.6 1.1 0 0.7 0.1 1.4-0.1 1.9-0.3 0.8-1.2 0.8-1.9 0.8-6.7-0.4-10.6 2.4-14.7 4.8-1.1 0.7-2.3 1.2-3.2 2.1-4.3 4-9 7.7-10.1 15.1l-0.9 8.2c-0.1 0.9-1.1 1.8-0.9 2.9l0.7 4.9c-0.7-0.7-1.1 0.2-0.9 0.6 0.1 0.3 0.5 1.3 1.1 0.4 0.8 1.5 1.6 4.4 2.7 5.7 3.4 4 7.8 7.6 11.4 11.2 0.9-0.2 1.6-0.2 1.8-0.8 0.3 0.6-0.3 1.2-0.8 1.3 1.6 1 3.4 1.9 5.8 2.1 3.1 0.2 6 0.7 8.7 1.4 1.4-0.4 2.8-0.6 4.3-0.7 0.5 0 0.8-0.8 1.4-1l0.1-1c0.6 0.9 0.5-0.3 0.1-0.9 0.7 0.6 0.9 1.1 1.2 1.5 0-0.3 0.8-1.4 0.8-0.1l0.2-1.3c0.3-0.2 0.4 1.1 0.7 0.2 0.3-0.9 0.9-0.2 1.5-0.5-0.2 0.4-0.1 1.2 0.6 0.7l0.8-0.7c0.5 1.2 1.3 0.7 1.7 0.5 4.4-2.8 8.8-6.1 13-9.4l-0.1 1.3 0.5-1.6c0.5 0.5 0.9 0.1 1.1-0.2 0.6-1 1.4-2 2.7-2.9-1.6 4.3-3.5 7.7-5.9 10.5l-1 1.2c0 0.7-0.2 1.6-1 1.7-0.4 0.1-1.2-0.2-1.8 0.4-0.3 0.4 0.7 1.2-0.1 0.6-0.7-0.5-1.4 0-2.2 0.2-0.6 0.2 0.4 0.8 0.6 1.2 0.2 0.4 0.4 0.8 0.3 1.3l-1.1-1.2c-1.3 0.7-2.1 2-3.2 3-0.5 0.4-0.3 1.1-0.3 1.7-0.7 0-1.5-0.2-1.9 0.2-0.3 0.4-0.2 1-0.2 1.6-1-0.1-1.1-1.6-2-1.3-0.9 0.2-1.9 0.3-2.7 0.8 0.6 1.2-1 0.5-0.8 0.7-1.5-0.9-2.8-1.6-4.4-1-3.4-1.1-7.6-0.6-10.7-0.2 0-0.5 0.1-1-0.1-1.1-0.2 0.5-0.8 0.3-0.7 0.3-1.9-1.3-3.8-2.1-5.8-3.2-1.8 0.2-3.5-0.7-4-1.2-1.4-1.3-3-0.6-4.3-0.9-2.8-0.7-3.8-3.6-4.1-5.6-0.2-1-1-1.4-1.3-1.3-1.3-4.2-3.3-8-4.9-11.9-0.4-1-0.3-2-0.3-3.1 0.5 0.2 1 0.1 0.9-0.6-0.5-3.3-1.7-5.8-3-8.2 0.7-3.4 0.8-7.4 2.4-10.4 1.4-2.7 4-4.1 5.8-6.4 0.6-0.8 0.6-1.9 1.2-2.6 2-2 4-4.1 6.2-5.9 1-0.8 2.2 0 3.7-0.3 0.5-1.8 2.5-3.4 4.4-2.9 0.8 0.2 2.4-1.9 2.9-2.1 0.8-0.3 0.4 0.8 0.4 1.5 1.9-1.5 4.5-2.3 6.9-3.2" fill="#ffffff" fill-rule="nonzero" stroke="none" stroke-width="1" stroke-linecap="butt" stroke-linejoin="miter" stroke-miterlimit="10" stroke-dasharray="" stroke-dashoffset="0" font-family="none" font-weight="none" font-size="none" text-anchor="none" style="mix-blend-mode: normal" data-fill-palette-color="tertiary"></path></g><g transform="matrix(1,0,0,1,102.87399604900412,90)"><svg viewBox="0 0 114.25200790199175 180" height="180" width="114.25200790199175"><g><svg viewBox="0 0 114.25200790199175 180" height="180" width="114.25200790199175"><g><svg viewBox="0 0 180.23936170212764 283.96074346643843" height="180" width="114.25200790199175"><g transform="matrix(1,0,0,1,0,103.96074346643846)"><svg viewBox="0 0 180.23936170212764 180" height="180" width="180.23936170212764"><g id="textblocktransform"><svg viewBox="0 0 180.23936170212764 180" height="180" width="180.23936170212764" id="textblock"><g><svg viewBox="0 0 180.23936170212764 180" height="180" width="180.23936170212764"><g transform="matrix(1,0,0,1,0,0)"><svg width="180.23936170212764" viewBox="0.45 -31.7 37.65 37.6" height="180" data-palette-color="#ffffff"><path d="M7.05 5.9L7.05 5.9Q4.85 5.9 4.85 3.65L4.85 3.65Q4.85 2.05 5.8-0.38 6.75-2.8 8.35-5.7 9.95-8.6 11.88-11.63 13.8-14.65 15.75-17.5 17.7-20.35 19.38-22.65 21.05-24.95 22.15-26.35L22.15-26.35Q22.1-26.75 22.5-27.35 22.9-27.95 23.4-28.5 23.9-29.05 24.1-29.35L24.1-29.35Q23.7-29.4 23.3-29.4 22.9-29.4 22.5-29.4L22.5-29.4Q19.35-29.4 16.03-28.78 12.7-28.15 9.7-26.7 6.7-25.25 4.5-22.8L4.5-22.8Q3.7-21.85 2.88-20.45 2.05-19.05 2.05-17.75L2.05-17.75Q2.05-16.95 2.38-16.53 2.7-16.1 3.03-15.9 3.35-15.7 3.35-15.45L3.35-15.45Q3.35-15.35 3.15-15.35L3.15-15.35Q1.75-15.35 1.1-16.6 0.45-17.85 0.45-19L0.45-19Q0.45-20.2 0.93-21.33 1.4-22.45 2.15-23.4L2.15-23.4Q3.9-25.55 6.68-26.93 9.45-28.3 12.7-29.1 15.95-29.9 19.18-30.2 22.4-30.5 24.95-30.45L24.95-30.45Q25-30.5 25.13-30.68 25.25-30.85 25.25-30.9L25.25-30.9Q25.75-31.3 26.53-31.5 27.3-31.7 27.9-31.7L27.9-31.7Q28.05-31.7 28.48-31.63 28.9-31.55 28.9-31.25L28.9-31.25Q28.9-31.05 28.6-30.75 28.3-30.45 28.2-30.3L28.2-30.3Q29.4-30.2 31.08-29.93 32.75-29.65 34.35-29.03 35.95-28.4 37.02-27.33 38.1-26.25 38.1-24.55L38.1-24.55Q38.1-22.95 37.18-21.35 36.25-19.75 34.73-18.32 33.2-16.9 31.4-15.75 29.6-14.6 27.8-13.9 26-13.2 24.55-13.1L24.55-13.1Q25.45-13.05 26.28-12.93 27.1-12.8 27.95-12.4L27.95-12.4Q29.25-11.8 30.35-10.83 31.45-9.85 31.45-8.25L31.45-8.25Q31.45-7.65 31.2-6.9L31.2-6.9Q32.1-6.3 32.1-5.05L32.1-5.05Q32.1-4.95 32.02-4.53 31.95-4.1 31.7-4.1L31.7-4.1Q31.6-4.1 31.58-4.3 31.55-4.5 31.5-4.55L31.5-4.55Q31.45-5 31.33-5.33 31.2-5.65 30.8-5.95L30.8-5.95Q29.9-4.25 27.95-2.55 26-0.85 23.55 0.5 21.1 1.85 18.65 2.68 16.2 3.5 14.25 3.5L14.25 3.5Q13.15 3.5 12.05 3.05 10.95 2.6 10.95 1.3L10.95 1.3Q10.95 0.15 11.68-0.9 12.4-1.95 13.5-2.85 14.6-3.75 15.75-4.42 16.9-5.1 17.75-5.5L17.75-5.5Q19.05-6.1 20.9-6.58 22.75-7.05 24.65-7.38 26.55-7.7 27.9-7.7L27.9-7.7Q28-7.95 28.05-8.25 28.1-8.55 28.1-8.85L28.1-8.85Q28.1-10.2 27.38-10.95 26.65-11.7 25.55-12.08 24.45-12.45 23.35-12.55L23.35-12.55Q21.65-11.8 19.65-11.8L19.65-11.8Q19.45-11.8 18.82-11.85 18.2-11.9 17.63-12.08 17.05-12.25 17.05-12.6L17.05-12.6Q17.05-13 17.85-13.2 18.65-13.4 19.55-13.5 20.45-13.6 20.65-13.6L20.65-13.6Q22.05-13.7 23.43-14.03 24.8-14.35 26.1-14.85L26.1-14.85Q27.35-15.35 28.88-16.23 30.4-17.1 31.8-18.25 33.2-19.4 34.1-20.8 35-22.2 35-23.7L35-23.7Q35-25.1 34.2-26.08 33.4-27.05 32.15-27.65 30.9-28.25 29.55-28.6 28.2-28.95 27.15-29.1L27.15-29.1Q24.65-26.2 21.85-22.58 19.05-18.95 16.38-15 13.7-11.05 11.63-7.05 9.55-3.05 8.5 0.6L8.5 0.6Q8.3 1.25 8.13 2.02 7.95 2.8 7.95 3.5L7.95 3.5Q7.95 3.9 8.1 4.42 8.25 4.95 8.8 4.95L8.8 4.95Q9.25 4.95 9.68 4.83 10.1 4.7 10.55 4.7L10.55 4.7Q10.55 4.7 10.73 4.7 10.9 4.7 10.9 4.8L10.9 4.8Q10.9 5 10.08 5.28 9.25 5.55 8.3 5.73 7.35 5.9 7.05 5.9ZM15.25 2.25L15.25 2.25Q16.85 2.25 18.7 1.4 20.55 0.55 22.35-0.83 24.15-2.2 25.53-3.78 26.9-5.35 27.55-6.75L27.55-6.75Q26.2-6.75 24.35-6.4 22.5-6.05 20.7-5.5 18.9-4.95 17.7-4.25L17.7-4.25Q16.95-3.8 15.9-3 14.85-2.2 14.05-1.2 13.25-0.2 13.25 0.8L13.25 0.8Q13.25 1.6 13.9 1.93 14.55 2.25 15.25 2.25Z" opacity="1" transform="matrix(1,0,0,1,0,0)" fill="#ffffff" class="wordmark-text-0" data-fill-palette-color="primary" id="text-0"></path></svg></g></svg></g></svg></g></svg></g><g transform="matrix(1,0,0,1,62.2726994680851,0)"><svg viewBox="0 0 55.69396276595744 77.69442346643845" height="77.69442346643845" width="55.69396276595744"><g><svg xmlns="http://www.w3.org/2000/svg" xmlns:xlink="http://www.w3.org/1999/xlink" version="1.1" x="0" y="0" viewBox="15 1.9269003284067245 61.48502822077063 85.77309967159327" enable-background="new 0 0 90 90" xml:space="preserve" height="77.69442346643845" width="55.69396276595744" class="icon-icon-0" data-fill-palette-color="accent" id="icon-0"><path d="M75.1 9.9C67.7 4 46.6-0.8 34.9 3.7 33.1 4.3 31.6 5.1 30.5 6 26.3 10 41.6 30.2 41.6 46.6 41.6 50.5 41.1 53.9 40.4 56.6 38.2 55.8 35.8 55.3 33.3 55.3 23.2 55.3 15 62.6 15 71.5S23.2 87.7 33.3 87.7C39.3 87.7 44.5 85.2 47.9 81.3 48.6 80.4 49.3 79.5 49.8 78.5 62.4 58.6 54 35.6 50 18.1 63.7 15.7 69.9 24 71.8 25.4 73.9 26.9 78.9 12.9 75.1 9.9" fill="#ffffff" data-fill-palette-color="accent"></path></svg></g></svg></g><g></g></svg></g></svg></g></svg></g></svg></g><defs></defs></svg><rect width="320" height="360" fill="none" stroke="none" visibility="hidden"></rect></g></svg></g></svg>