<?xml version="1.0" encoding="UTF-8"?>
<svg version="1.1" xmlns="http://www.w3.org/2000/svg" width="2000" height="1500">
<path d="M0 0 C660 0 1320 0 2000 0 C2000 495 2000 990 2000 1500 C1340 1500 680 1500 0 1500 C0 1005 0 510 0 0 Z " fill="#EE3E38" transform="translate(0,0)"/>
<path d="M0 0 C3.1906631 1.73350987 5.89995905 4.03788444 8.734375 6.29296875 C15.65957668 11.878411 15.65957668 11.878411 24.23828125 13.20703125 C25.57548218 13.17911499 25.57548218 13.17911499 26.93969727 13.15063477 C27.95181274 13.11474243 27.95181274 13.11474243 28.984375 13.078125 C29.13109245 16.57767484 29.21891088 20.07642203 29.296875 23.578125 C29.33876953 24.56039063 29.38066406 25.54265625 29.42382812 26.5546875 C29.53690122 33.33907319 28.49590963 37.88324987 23.984375 43.078125 C19.7847621 46.25344207 15.87879912 47.19002659 10.68847656 47.23583984 C9.84445786 47.24623795 9.00043915 47.25663605 8.13084412 47.26734924 C7.22141556 47.27451462 6.311987 47.28167999 5.375 47.2890625 C3.41445882 47.31471444 1.45392833 47.34119441 -0.5065918 47.3684082 C-1.5297348 47.38167145 -2.55287781 47.39493469 -3.60702515 47.40859985 C-20.90682368 47.65246615 -37.94977067 47.97898231 -55.015625 51.078125 C-55.83836914 51.22121094 -56.66111328 51.36429687 -57.50878906 51.51171875 C-90.58623193 57.39099684 -120.9998545 71.5961215 -149.88867188 88.2734375 C-153.10922669 90.13214621 -156.33540442 91.98079885 -159.5625 93.828125 C-170.44224134 100.06752941 -181.28019093 106.36821314 -192.01000977 112.86254883 C-195.87678141 115.20247197 -199.75370797 117.51546293 -203.67578125 119.76171875 C-217.1110114 127.4632306 -227.96697847 136.76046035 -239.19335938 147.36474609 C-241.82057616 149.83497753 -244.4777993 152.27141993 -247.140625 154.703125 C-248.57458985 156.01547027 -250.0085489 157.32782188 -251.44244385 158.64024353 C-252.93542922 160.00482637 -254.43149588 161.36603572 -255.92773438 162.72705078 C-263.67136411 169.79659988 -271.17389047 177.0799954 -278.57470703 184.50683594 C-280.40673495 186.3442826 -282.24413105 188.1762415 -284.08203125 190.0078125 C-289.9353873 195.85717244 -295.73065456 201.70082024 -301.015625 208.078125 C-301.5120752 208.67318848 -302.00852539 209.26825195 -302.52001953 209.88134766 C-337.7896719 252.60543263 -355.94057033 300.02874648 -361.5234375 354.8125 C-361.73627581 356.83075858 -361.94998929 358.84892504 -362.16452026 360.86700439 C-362.72087885 366.12053538 -363.26647814 371.3751239 -363.80932617 376.63006592 C-364.46896839 382.99765492 -365.14056706 389.36399171 -365.8113842 395.73041153 C-366.33349418 400.68626443 -366.85365291 405.6422884 -367.36697388 410.59906006 C-367.90276323 415.76027439 -368.45443953 420.91961543 -369.015625 426.078125 C-369.14090356 427.25006786 -369.14090356 427.25006786 -369.268713 428.44568634 C-369.50633943 430.64071857 -369.75562639 432.83408413 -370.0090332 435.02734375 C-370.14718948 436.25122803 -370.28534576 437.4751123 -370.4276886 438.73608398 C-371.36799699 444.08113354 -373.53071243 448.57920029 -376.078125 453.328125 C-376.98842364 455.1027605 -377.89608938 456.87874967 -378.80078125 458.65625 C-379.20176025 459.41325195 -379.60273926 460.17025391 -380.01586914 460.95019531 C-384.16712248 469.7859277 -381.59096248 480.26466351 -380.23046875 489.50390625 C-379.86128716 492.09960355 -379.49214778 494.69530685 -379.12304688 497.29101562 C-378.63643507 500.67487393 -378.14651172 504.05825116 -377.65545654 507.44146729 C-376.98456309 512.0652743 -376.32487686 516.69058669 -375.66796875 521.31640625 C-375.39774147 523.1461071 -375.39774147 523.1461071 -375.12205505 525.01277161 C-374.88169273 526.71055 -374.88169273 526.71055 -374.63647461 528.44262695 C-374.49213486 529.43696243 -374.3477951 530.43129791 -374.19908142 531.45576477 C-374.02354955 533.96484997 -374.23972809 535.70525731 -375.015625 538.078125 C-377.325625 537.748125 -379.635625 537.418125 -382.015625 537.078125 C-383.7245379 538.6568931 -383.7245379 538.6568931 -385.015625 541.078125 C-384.79953607 546.91252612 -383.19169513 551.90205487 -379.015625 556.078125 C-375.6051666 555.71912938 -373.02908816 554.6425612 -370.015625 553.078125 C-364.87053696 564.21946378 -360.01800354 575.43582438 -355.453125 586.828125 C-341.13631489 622.37938562 -317.73760686 646.42510467 -291.015625 673.203125 C-290.28775787 673.93367096 -289.55989075 674.66421692 -288.80996704 675.41690063 C-286.69400675 677.53875804 -284.57423845 679.65673264 -282.453125 681.7734375 C-281.82331223 682.40522415 -281.19349945 683.0370108 -280.54460144 683.6879425 C-276.73914446 687.47401647 -272.81647605 691.06959954 -268.74523926 694.56869507 C-265.83022982 697.11261634 -263.17621198 699.89721227 -260.484375 702.671875 C-257.79390331 705.29423349 -254.98465177 707.7379747 -252.14794922 710.19970703 C-248.62647884 713.30185875 -245.23204705 716.53569525 -241.828125 719.765625 C-236.75008106 724.56548045 -231.66110304 729.35059948 -226.515625 734.078125 C-221.49392153 738.7008525 -216.49604961 743.34844507 -211.515625 748.015625 C-210.43486694 749.02302734 -210.43486694 749.02302734 -209.33227539 750.05078125 C-205.89380367 753.27709774 -202.53793512 756.53696476 -199.32421875 759.98828125 C-198.751875 760.59486572 -198.17953125 761.2014502 -197.58984375 761.82641602 C-196.53350851 762.95696574 -195.49418331 764.10376803 -194.4765625 765.26928711 C-191.66829163 768.26168337 -190.19327538 769.05774177 -186.06640625 769.53125 C-182.3275397 769.25400072 -178.84795095 768.44224551 -175.265625 767.328125 C-173.63367188 766.84085938 -173.63367188 766.84085938 -171.96875 766.34375 C-168.87057668 765.01596144 -167.20395751 763.60639266 -165.015625 761.078125 C-164.015625 762.078125 -164.015625 762.078125 -163.890625 765.640625 C-164.42325321 769.94466697 -166.32724273 771.61690075 -169.5859375 774.35546875 C-170.41109863 775.05792725 -171.23625977 775.76038574 -172.08642578 776.48413086 C-172.72306152 777.01014893 -173.35969727 777.53616699 -174.015625 778.078125 C-145.67352115 794.0751388 -120.23847361 802.97759573 -87.70941162 805.28167725 C-71.65723945 806.43740073 -55.86979801 808.26108153 -40.015625 811.078125 C-38.89478516 811.27164551 -37.77394531 811.46516602 -36.61914062 811.66455078 C-24.10936668 813.8305108 -11.69118122 816.13103971 0.54443359 819.55444336 C9.38153476 821.95164957 16.3195808 820.94377317 25.046875 818.765625 C36.1682503 816.12472618 47.22310977 815.00254695 58.59985352 814.24291992 C59.86240967 814.14599854 61.12496582 814.04907715 62.42578125 813.94921875 C64.10716187 813.83984985 64.10716187 813.83984985 65.82250977 813.72827148 C72.14305856 812.42863273 76.08349649 808.15960449 80.2734375 803.56640625 C81.984375 802.078125 81.984375 802.078125 85.984375 801.078125 C86.314375 796.788125 86.644375 792.498125 86.984375 788.078125 C88.634375 789.398125 90.284375 790.718125 91.984375 792.078125 C91.84232759 790.49444753 91.69557347 788.91119182 91.546875 787.328125 C91.46566406 786.44640625 91.38445313 785.5646875 91.30078125 784.65625 C91.02199035 782.38462048 90.59646923 780.27960677 89.984375 778.078125 C95.6093543 782.46560886 99.29058092 786.98945343 102.984375 793.078125 C103.5825 792.294375 104.180625 791.510625 104.796875 790.703125 C106.984375 788.078125 106.984375 788.078125 109.984375 786.078125 C110.974375 786.078125 111.964375 786.078125 112.984375 786.078125 C113.314375 786.738125 113.644375 787.398125 113.984375 788.078125 C114.644375 784.778125 115.304375 781.478125 115.984375 778.078125 C117.304375 778.078125 118.624375 778.078125 119.984375 778.078125 C120.644375 780.058125 121.304375 782.038125 121.984375 784.078125 C124.95802569 781.52928155 126.311524 778.57590436 127.984375 775.078125 C128.984375 774.078125 128.984375 774.078125 132.58203125 773.98046875 C134.07034367 773.9871428 135.55863932 773.99910317 137.046875 774.015625 C137.80548828 774.02013672 138.56410156 774.02464844 139.34570312 774.02929688 C141.22529371 774.0411182 143.10484399 774.05905422 144.984375 774.078125 C144.95182292 776.12890625 144.91927083 778.1796875 144.88671875 780.23046875 C144.77876316 782.09544641 144.77876316 782.09544641 145.984375 783.078125 C152.57667488 783.21546458 155.59941669 780.22176653 160.26171875 775.79296875 C161.11443359 774.94412109 161.11443359 774.94412109 161.984375 774.078125 C165.99085251 775.4136175 166.74182136 777.60578387 168.984375 781.078125 C172.31487894 782.74337697 175.39573385 782.64372013 178.984375 782.078125 C191.0326062 777.64156033 201.6639698 769.12494392 212.171875 761.953125 C214.04449572 760.68426667 215.91754016 759.41603345 217.79101562 758.1484375 C228.94689709 750.58648481 240.0131372 742.90545168 250.984375 735.078125 C252.32036743 734.12510498 252.32036743 734.12510498 253.68334961 733.15283203 C255.74604973 731.67505651 257.80434102 730.19153725 259.859375 728.703125 C260.59438232 728.17114502 261.32938965 727.63916504 262.08666992 727.09106445 C276.27211655 716.80725342 290.31229724 706.34987905 304.23046875 695.70703125 C307.96629386 692.85108644 311.71709385 690.01741804 315.484375 687.203125 C323.32144995 681.34187599 331.06765502 675.36442783 338.7734375 669.33203125 C339.59440918 668.69031982 340.41538086 668.0486084 341.26123047 667.38745117 C342.89475348 666.1098201 344.52662411 664.83007322 346.15673828 663.5480957 C347.27024658 662.67737427 347.27024658 662.67737427 348.40625 661.7890625 C349.07237305 661.26618652 349.73849609 660.74331055 350.42480469 660.20458984 C351.984375 659.078125 351.984375 659.078125 352.984375 659.078125 C353.314375 662.048125 353.644375 665.018125 353.984375 668.078125 C355.304375 663.788125 356.624375 659.498125 357.984375 655.078125 C360.42578125 655.50130208 362.8671875 655.92447917 365.30859375 656.34765625 C369.26350285 655.94927855 370.47429299 654.06920501 372.984375 651.078125 C374.40127462 649.08644535 375.774698 647.06331386 377.109375 645.015625 C384.30357044 634.31165491 394.57273902 620.44598296 406.984375 616.078125 C404.84221976 624.02111128 401.87773322 631.47456381 398.609375 639.015625 C398.3490448 639.6180603 398.0887146 640.22049561 397.82049561 640.84118652 C380.67838164 680.43899027 359.84781492 717.87018583 331.546875 750.640625 C331.04736328 751.22038086 330.54785156 751.80013672 330.03320312 752.39746094 C328.02674749 754.7229403 326.01594416 757.04269398 323.97265625 759.3359375 C320.20743643 763.83961447 319.28186076 767.62072467 318.45703125 773.39453125 C317.44114055 779.1624396 315.70604203 782.85242043 310.90625 786.26953125 C306.64083615 788.5683403 302.68248951 788.60194792 297.921875 788.578125 C291.58485162 788.54657136 287.99746793 789.03556686 282.984375 793.078125 C283.314375 796.048125 283.644375 799.018125 283.984375 802.078125 C282.664375 801.418125 281.344375 800.758125 279.984375 800.078125 C270.12773086 796.79257695 261.1460082 800.33322384 251.984375 804.078125 C251.57824965 807.91066307 251.57824965 807.91066307 253.3046875 809.796875 C253.90023437 810.3846875 254.49578125 810.9725 255.109375 811.578125 C260.1828492 817.10624862 265.34359574 824.5489517 265.359375 832.328125 C265.235625 833.235625 265.111875 834.143125 264.984375 835.078125 C262.984375 835.078125 262.984375 835.078125 261.43359375 833.5390625 C260.85222656 832.85070313 260.27085937 832.16234375 259.671875 831.453125 C259.05570313 830.72867188 258.43953125 830.00421875 257.8046875 829.2578125 C257.20398437 828.53851562 256.60328125 827.81921875 255.984375 827.078125 C255.46617187 826.46195313 254.94796875 825.84578125 254.4140625 825.2109375 C253.26478665 823.83837377 252.1236189 822.4590267 250.984375 821.078125 C237.61106184 825.99171667 226.65020428 839.53521206 217.64453125 850.19921875 C214.85677664 853.35430103 211.82116096 856.26064171 208.8046875 859.1953125 C206.2011797 861.88821112 205.8472909 863.57325951 205.66796875 867.2109375 C205.60512695 868.41943359 205.60512695 868.41943359 205.54101562 869.65234375 C205.50169922 870.49410156 205.46238281 871.33585937 205.421875 872.203125 C205.37869141 873.05261719 205.33550781 873.90210938 205.29101562 874.77734375 C205.18483264 876.87740723 205.08409003 878.97774448 204.984375 881.078125 C204.39946289 881.06765137 203.81455078 881.05717773 203.21191406 881.04638672 C200.55277837 881.00472236 197.89371147 880.97876599 195.234375 880.953125 C194.31398438 880.93636719 193.39359375 880.91960938 192.4453125 880.90234375 C191.55585937 880.89589844 190.66640625 880.88945313 189.75 880.8828125 C188.52458496 880.86710205 188.52458496 880.86710205 187.27441406 880.85107422 C184.73403268 881.10294572 183.15277728 881.75302336 180.984375 883.078125 C178.18393097 886.72773593 178.53497374 891.41620668 178.359375 895.828125 C178.32070312 896.62089844 178.28203125 897.41367188 178.2421875 898.23046875 C178.148267 900.17931916 178.06524678 902.12868951 177.984375 904.078125 C171.6876184 903.14168428 168.179115 899.82405541 164.2734375 894.9375 C163.24555663 893.54359325 162.23472968 892.13685434 161.24609375 890.71484375 C160.06491157 888.93700163 160.06491157 888.93700163 157.984375 888.078125 C152.21939298 887.75743389 146.91572542 888.63095697 141.296875 889.765625 C140.41854004 889.94061523 139.54020508 890.11560547 138.63525391 890.29589844 C132.41110767 891.60781155 126.86813102 893.41324256 121.1015625 896.125 C118.984375 897.078125 118.984375 897.078125 116.984375 897.078125 C117.314375 897.738125 117.644375 898.398125 117.984375 899.078125 C118.109375 902.640625 118.109375 902.640625 117.984375 906.078125 C116.984375 907.078125 116.984375 907.078125 113.546875 907.390625 C104.58960624 907.21685083 96.40400286 901.88420361 88.60546875 897.89648438 C80.22837749 893.61724189 73.29902477 891.90057855 63.796875 891.953125 C63.08595703 891.94925781 62.37503906 891.94539063 61.64257812 891.94140625 C58.48875616 891.94734006 55.99768105 892.07368965 52.984375 893.078125 C48.33862553 893.40996425 44.68999679 893.10371268 40.234375 891.765625 C34.88794316 890.19226779 29.54840123 889.27362718 24.046875 888.453125 C23.23702148 888.33026123 22.42716797 888.20739746 21.59277344 888.08081055 C8.59498667 886.20009768 -4.28227067 885.87558151 -17.390625 885.890625 C-18.72554489 885.89103287 -18.72554489 885.89103287 -20.08743286 885.89144897 C-33.50616756 885.91029911 -46.6924197 886.39664963 -60.015625 888.078125 C-62.25896541 888.34630294 -64.50246504 888.61315116 -66.74609375 888.87890625 C-70.13137352 889.28110593 -73.51571199 889.68742545 -76.89819336 890.11254883 C-77.89858643 890.23782959 -78.89897949 890.36311035 -79.9296875 890.4921875 C-80.8160791 890.6051416 -81.7024707 890.7180957 -82.61572266 890.83447266 C-85.015625 891.078125 -85.015625 891.078125 -89.015625 891.078125 C-89.015625 886.788125 -89.015625 882.498125 -89.015625 878.078125 C-90.665625 879.068125 -92.315625 880.058125 -94.015625 881.078125 C-98.71317408 881.84061072 -101.25171017 880.66003222 -105.09384155 877.94523621 C-105.69967072 877.50053482 -106.30549988 877.05583344 -106.9296875 876.59765625 C-114.45404303 871.33475823 -122.24460857 866.98071273 -130.390625 862.765625 C-132.50169599 861.66873143 -134.61235101 860.57104356 -136.72273254 859.4728241 C-138.13376076 858.73864036 -139.54536795 858.00556823 -140.95756531 857.27363586 C-145.31582713 855.00383929 -149.58920887 852.62956945 -153.83984375 850.1640625 C-166.06129073 843.18549102 -175.56150064 839.9324957 -189.62109375 839.4375 C-203.72072738 838.82348776 -215.77830386 832.24473834 -226.84375 823.9609375 C-236.68577894 816.61975198 -244.67908353 814.01897248 -257.09375 813.90234375 C-258.43360931 813.87913677 -259.7734531 813.85501907 -261.11328125 813.83007812 C-263.18418719 813.79516424 -265.2545206 813.76569738 -267.32568359 813.75219727 C-276.23114503 813.683105 -283.85241848 812.86918833 -292.015625 809.078125 C-293.10875 808.57152344 -294.201875 808.06492187 -295.328125 807.54296875 C-315.72484361 795.95122896 -325.76165688 776.20249573 -331.8984375 754.375 C-332.9569459 750.44742306 -333.75262766 746.51064477 -334.515625 742.515625 C-336.01517625 735.21892589 -338.20116111 730.36487691 -344.015625 725.640625 C-346.81506223 724.18258477 -348.94647944 723.61211485 -352.015625 723.078125 C-352.23476563 722.37357178 -352.45390625 721.66901855 -352.6796875 720.94311523 C-363.91281834 685.21456721 -379.14632759 651.17796237 -394.45274353 617.04412842 C-398.33189283 608.38786102 -402.1536271 599.70709762 -405.953125 591.015625 C-406.23263 590.37771027 -406.51213501 589.73979553 -406.80010986 589.08255005 C-408.08077971 586.1594736 -409.35537806 583.23399808 -410.62060547 580.30419922 C-411.54549126 578.16534013 -412.48191356 576.03143032 -413.43017578 573.90283203 C-418.24069028 562.87354814 -419.31440796 553.44414944 -419.140625 541.453125 C-419.13160156 540.25816406 -419.12257813 539.06320312 -419.11328125 537.83203125 C-419.08993577 534.91384666 -419.05719156 531.99609724 -419.015625 529.078125 C-418.07589844 529.13033203 -418.07589844 529.13033203 -417.1171875 529.18359375 C-416.29992187 529.21066406 -415.48265625 529.23773437 -414.640625 529.265625 C-413.42246094 529.31783203 -413.42246094 529.31783203 -412.1796875 529.37109375 C-411.46554687 529.27441406 -410.75140625 529.17773438 -410.015625 529.078125 C-406.51403006 523.82573259 -407.7472141 517.94744671 -408.86328125 511.94140625 C-409.25491325 510.08828165 -409.66049954 508.23806523 -410.078125 506.390625 C-410.30072998 505.39313232 -410.52333496 504.39563965 -410.75268555 503.36791992 C-416.75979881 477.34255741 -427.1671786 453.30391924 -438.84375 429.40234375 C-439.66262695 427.72470947 -439.66262695 427.72470947 -440.49804688 426.01318359 C-441.71882094 423.65215628 -443.01084598 421.53732569 -444.5 419.34765625 C-446.68548044 414.6331018 -445.89596793 411.08657449 -445.015625 406.078125 C-444.87012207 405.10520508 -444.72461914 404.13228516 -444.57470703 403.12988281 C-444.10249755 399.98281899 -443.59443897 396.84323521 -443.078125 393.703125 C-442.90861328 392.65640625 -442.73910156 391.6096875 -442.56445312 390.53125 C-441.8937677 386.40003178 -441.21779408 382.26992116 -440.51782227 378.14355469 C-439.60102018 372.73419603 -438.75114437 367.32175397 -437.97265625 361.890625 C-430.17285606 308.07887574 -413.73951553 266.0279086 -372.07495117 229.87915039 C-355.38465107 215.28231058 -339.15786684 201.01882079 -332.28173828 179.40527344 C-328.66172387 168.26556123 -322.34177746 160.83260863 -314.08984375 152.7265625 C-313.01675656 151.65841237 -311.94449057 150.58943667 -310.8730011 149.51968384 C-308.63559208 147.28987367 -306.39193043 145.06664124 -304.14282227 142.84863281 C-301.27998992 140.02534741 -298.42800296 137.19142702 -295.58003521 134.35315514 C-292.83678656 131.61994817 -290.08868336 128.89164484 -287.33984375 126.1640625 C-286.8261643 125.6537788 -286.31248486 125.1434951 -285.78323936 124.61774826 C-280.55000789 119.42619367 -275.29124272 114.30244591 -269.68374634 109.51184082 C-266.94628325 107.15904786 -264.33546378 104.67198256 -261.703125 102.203125 C-245.83062389 87.44942123 -236.97280409 82.53044937 -215.05859375 83.296875 C-212.77333232 83.38802503 -210.48817312 83.48177539 -208.203125 83.578125 C-207.02169922 83.62582031 -205.84027344 83.67351562 -204.62304688 83.72265625 C-201.7538027 83.83881998 -198.88467754 83.95733631 -196.015625 84.078125 C-195.86867188 83.30106201 -195.72171875 82.52399902 -195.5703125 81.72338867 C-193.62395284 72.44134338 -187.5312505 65.61649265 -181.015625 59.078125 C-180.47292969 58.51222656 -179.93023438 57.94632812 -179.37109375 57.36328125 C-173.26744599 51.5377744 -162.33535666 45.127772 -153.68481445 45.05981445 C-152.84136475 45.10323975 -151.99791504 45.14666504 -151.12890625 45.19140625 C-150.18982422 45.22169922 -149.25074219 45.25199219 -148.28320312 45.28320312 C-146.33184275 45.35413823 -144.38109038 45.44490547 -142.43164062 45.55664062 C-134.92798761 45.74589431 -130.74514267 43.83953924 -125.015625 39.078125 C-124.08492187 38.31628906 -123.15421875 37.55445313 -122.1953125 36.76953125 C-121.43476562 36.06699219 -120.67421875 35.36445313 -119.890625 34.640625 C-119.05917969 33.87492187 -118.22773437 33.10921875 -117.37109375 32.3203125 C-115.28199181 30.33168146 -113.23143785 28.3159369 -111.203125 26.265625 C-104.103511 19.14946179 -104.103511 19.14946179 -99.203125 18.828125 C-98.15125 18.910625 -97.099375 18.993125 -96.015625 19.078125 C-94.8656011 21.3781728 -94.88182992 22.71065421 -94.890625 25.265625 C-94.88804687 26.00167969 -94.88546875 26.73773438 -94.8828125 27.49609375 C-95.04904215 30.7277937 -95.52383563 33.88149411 -96.015625 37.078125 C-95.56050537 36.77221436 -95.10538574 36.46630371 -94.63647461 36.15112305 C-71.02810563 20.42489834 -45.52579308 10.43607821 -18.99343872 0.81811523 C-17.61145451 0.30105197 -16.23957218 -0.24346911 -14.87643433 -0.80834961 C-8.78668865 -3.28913255 -5.92123626 -2.5810517 0 0 Z " fill="#FEFEFE" transform="translate(1001.015625,297.921875)"/>
<path d="M0 0 C0.35040379 3.73399034 0.2806564 5.55520973 -1.75 8.7734375 C-2.86375 10.06121094 -2.86375 10.06121094 -4 11.375 C-5.11375 12.68597656 -5.11375 12.68597656 -6.25 14.0234375 C-7.11625 15.00183594 -7.11625 15.00183594 -8 16 C-6.7315625 15.94457031 -5.463125 15.88914062 -4.15625 15.83203125 C3.32584237 15.83860834 10.63213462 17.10613799 18.00097656 18.28881836 C20.46491902 18.68190336 22.93125764 19.05558579 25.3984375 19.42773438 C36.52684564 21.15681525 47.23250859 23.71000073 58 27 C59.50602783 27.45886597 59.50602783 27.45886597 61.04248047 27.92700195 C81.76285195 34.48575547 105.74477562 45.1704328 116.7421875 65.16796875 C118.29971648 68.40598953 119.69690414 71.65224387 121 75 C121.4021875 76.03060547 121.4021875 76.03060547 121.8125 77.08203125 C127.45885845 95.07979881 120.4383408 116.56545471 112.18359375 132.59375 C105.98057909 144.15044346 97.89436787 154.17208632 89.01953125 163.79296875 C87.26095093 165.71482152 85.59180225 167.67647489 83.9375 169.6875 C81.32967598 172.74056227 78.49108742 175.34788066 75.4296875 177.94140625 C73.60299246 179.48910446 71.79945054 181.06419462 70.0078125 182.65234375 C56.09026262 194.94247142 41.04476331 205.38646776 25.05175781 214.79052734 C23.17914708 215.89439616 21.31901732 217.01644917 19.4609375 218.14453125 C-2.3310993 231.08195825 -26.76338568 240.97538705 -52 244 C-51.38705078 244.05945801 -50.77410156 244.11891602 -50.14257812 244.18017578 C-36.91107085 245.52361416 -25.1246077 247.46627162 -13 253 C-11.81277344 253.5259375 -10.62554688 254.051875 -9.40234375 254.59375 C-0.52042309 258.76421995 7.28070998 264.00424532 15 270 C15.86882812 270.6703125 16.73765625 271.340625 17.6328125 272.03125 C26.20916505 279.12491109 32.9791407 289.06841256 34.26757812 300.34106445 C34.36454438 302.71451137 34.36304194 305.0627545 34.3125 307.4375 C34.30754517 308.68418457 34.30754517 308.68418457 34.30249023 309.95605469 C34.23601915 314.45143682 33.81706988 318.40571813 32.5625 322.75 C31.90877501 324.93626153 31.90877501 324.93626153 32 327 C33.49740176 329.19737063 35.14370861 330.71317738 37.17578125 332.421875 C41.6569044 336.29847833 42.51234553 341.34320813 43 347 C43.33773308 352.34040434 43.02018066 356.94954836 41 362 C38.875 363.4375 38.875 363.4375 37 364 C35.44211828 360.38704026 34.49418495 356.90786324 33.6875 353.0625 C32.40198751 347.7368054 30.96135577 344.75820932 27 341 C26.34 340.67 25.68 340.34 25 340 C24.74992187 340.70253906 24.49984375 341.40507813 24.2421875 342.12890625 C8.76482596 377.9020532 -33.80560381 404.36996957 -66 423 C-66.74330566 423.43554199 -67.48661133 423.87108398 -68.25244141 424.31982422 C-86.09152552 434.74432608 -104.90015265 442.94375254 -124.125 450.4375 C-124.76577484 450.68884705 -125.40654968 450.94019409 -126.06674194 451.19915771 C-138.5392047 456.07139827 -151.04675698 459.91339492 -164.25 462.1875 C-165.60351562 462.4340332 -165.60351562 462.4340332 -166.984375 462.68554688 C-187.50146503 466.32615121 -210.66936675 467.82122 -229.234375 456.65625 C-233.90932688 453.06013317 -236.6204383 448.72232398 -238 443 C-239.78042376 426.75592755 -234.70879224 413.70687907 -225 401 C-221.58032631 396.75764463 -217.86116753 392.83998143 -214 389 C-213.09765625 388.09765625 -212.1953125 387.1953125 -211.265625 386.265625 C-198.23685869 373.81271577 -183.21479024 363.99534612 -167.45947266 355.3515625 C-165.80820303 354.4441346 -164.16206516 353.52731034 -162.52099609 352.6015625 C-140.27292623 340.06402401 -116.75982983 332.85744685 -92 327 C-91.01290039 326.76297363 -90.02580078 326.52594727 -89.00878906 326.28173828 C-74.43274545 322.81466916 -59.76678574 320.43878842 -44.92822266 318.40234375 C-42.43360095 318.05957765 -39.94115532 317.70538121 -37.44921875 317.34375 C-29.30846178 316.19406885 -21.20667938 315.48051436 -13 315 C-9.23755582 303.4775147 -9.69513899 290.94029199 -15 280 C-23.45459756 265.66979352 -38.77431324 260.02149403 -54 255.6875 C-55.37043457 255.28712524 -55.37043457 255.28712524 -56.76855469 254.87866211 C-66.0158024 252.36682927 -74.35632592 251.87729718 -83.375 255.3125 C-95.14896123 259.73770213 -106.28459588 261.4994229 -118.79296875 261.39111328 C-120.99802468 261.37501442 -123.20124877 261.39106321 -125.40625 261.41015625 C-135.8113327 261.42673412 -147.22908759 261.27741187 -156 255 C-157.0625 252.0625 -157.0625 252.0625 -157 249 C-153.09046465 243.05070708 -144.92253321 241.86920938 -138.39331055 240.45278931 C-134.69570141 239.75324036 -130.99768552 239.41198215 -127.25 239.10546875 C-125.58521936 238.95672232 -123.92050815 238.80719729 -122.25585938 238.65698242 C-120.96844849 238.54294571 -120.96844849 238.54294571 -119.6550293 238.42660522 C-53.23224418 232.44473716 16.30624654 206.66935253 60.45849609 154.26904297 C75.54552385 135.37384875 82.33708335 115.25452915 80 91 C78.43993594 82.35440152 73.81167872 75.40677437 68 69 C67.50113281 68.40960937 67.00226563 67.81921875 66.48828125 67.2109375 C45.09878157 43.61244667 5.96712615 36.62650369 -24 32 C-24.27384521 32.59224365 -24.54769043 33.1844873 -24.82983398 33.79467773 C-25.95817714 35.92117965 -27.13079694 37.49105363 -28.72265625 39.28515625 C-29.25624756 39.89214355 -29.78983887 40.49913086 -30.33959961 41.12451172 C-31.1924353 42.08381592 -31.1924353 42.08381592 -32.0625 43.0625 C-33.25373635 44.41957993 -34.44383703 45.77765757 -35.6328125 47.13671875 C-36.21321289 47.79978027 -36.79361328 48.4628418 -37.39160156 49.14599609 C-40.19052241 52.37231743 -42.8787133 55.68497533 -45.56640625 59.00390625 C-47.45904684 61.33401112 -49.36288764 63.65274882 -51.27734375 65.96484375 C-58.19919987 74.3260578 -65.01892036 82.75068841 -71.68652344 91.31591797 C-73.43872929 93.56251945 -75.20177943 95.80049074 -76.96484375 98.03857422 C-100.37964816 127.71627533 -100.37964816 127.71627533 -122.72216797 158.19970703 C-124.66357153 160.93488277 -126.63686686 163.64669347 -128.60717773 166.36108398 C-136.19700863 176.82036499 -143.62621603 187.38757839 -151 198 C-151.69077637 198.99169189 -151.69077637 198.99169189 -152.39550781 200.00341797 C-175.42560273 233.09512085 -197.39384313 266.98949997 -216.61865234 302.45214844 C-217.6365262 304.3295842 -218.65825891 306.20492909 -219.68212891 308.07910156 C-265.94167688 388.50092775 -265.94167688 388.50092775 -275.6875 476.875 C-274.56583195 480.37650342 -274.22845456 480.84769696 -271 483 C-263.91796269 483.65078181 -257.79313062 482.97618345 -251 481 C-246.99408869 480.82759369 -243.00699383 480.88156668 -239 481 C-239.1640625 482.84765625 -239.1640625 482.84765625 -240 485 C-249.41583106 490.4197653 -261.51322196 492.48589648 -272 495 C-273.02222656 495.25007813 -274.04445313 495.50015625 -275.09765625 495.7578125 C-284.88626188 497.85431627 -297.10835797 499.13489928 -306.17578125 494.1953125 C-306.77777344 493.80085938 -307.37976563 493.40640625 -308 493 C-308.85658203 492.43925781 -308.85658203 492.43925781 -309.73046875 491.8671875 C-314.18653598 488.54439169 -317.08635303 484.25524551 -318.58984375 478.8984375 C-320.42522385 465.9284181 -319.32714875 452.60242464 -316 440 C-315.69449219 438.7625 -315.38898437 437.525 -315.07421875 436.25 C-308.75701077 412.04005247 -297.18186891 389.2746605 -286 367 C-285.41814941 365.83903809 -284.83629883 364.67807617 -284.23681641 363.48193359 C-276.63858168 348.4021642 -268.52531545 333.70649645 -259.89208984 319.19726562 C-257.85305404 315.75168976 -255.83981799 312.29195845 -253.83203125 308.828125 C-245.73995121 294.88404075 -237.42713364 281.1268763 -228.66650391 267.58886719 C-227.02597809 265.04035623 -225.40596049 262.48007378 -223.79296875 259.9140625 C-214.47047442 245.10002544 -204.76209303 230.55160788 -195.02244568 216.01028442 C-191.44336312 210.66622746 -187.87943985 205.31228861 -184.31933594 199.95556641 C-177.63713601 189.90625308 -170.89308376 179.90586114 -164 170 C-163.46697266 169.23268555 -162.93394531 168.46537109 -162.38476562 167.67480469 C-155.02943064 157.09469627 -147.5782136 146.59021087 -140.01171875 136.16015625 C-137.34000002 132.47633355 -134.69771788 128.77246705 -132.0625 125.0625 C-127.01132125 117.96625523 -121.83917501 110.96027002 -116.66015625 103.95703125 C-114.19902779 100.62874213 -111.74930466 97.29250778 -109.30859375 93.94921875 C-108.1017519 92.29934061 -106.89472358 90.64959885 -105.6875 89 C-104.81544922 87.80491821 -104.81544922 87.80491821 -103.92578125 86.58569336 C-100.69064759 82.18400965 -97.3358771 77.99445561 -93.75 73.875 C-90.47842514 69.98026802 -89.28480227 67.25640814 -88.546875 62.29296875 C-86.50113751 53.71548371 -79.0719017 46.47773778 -73.35205078 40.03442383 C-72.61704346 39.20527466 -72.61704346 39.20527466 -71.8671875 38.359375 C-71.43519043 37.87952148 -71.00319336 37.39966797 -70.55810547 36.90527344 C-68.22028419 34.04655247 -66.12240074 31.02055779 -64 28 C-70.04256391 28.12030969 -76.08502881 28.24463111 -82.12744141 28.37231445 C-84.17331835 28.41502353 -86.21921658 28.45672737 -88.26513672 28.49731445 C-116.05145717 29.02076294 -116.05145717 29.02076294 -143.6875 31.75 C-144.96077148 31.9255542 -146.23404297 32.1011084 -147.54589844 32.28198242 C-207.44782015 40.80901277 -271.12437174 61.19496847 -314 106 C-315.66666667 107.66666667 -317.33333333 109.33333333 -319 111 C-336.84128602 128.90312757 -355.12025971 155.22673541 -355.3125 181.25 C-355.34879819 192.29058926 -355.34879819 192.29058926 -349.6328125 201.37402344 C-347.49397131 203.40778474 -345.32887249 205.390425 -343.06542969 207.28515625 C-341.66156058 208.46790947 -340.32482531 209.72933422 -339 211 C-339 211.99 -339 212.98 -339 214 C-348.62132376 214.74391679 -355.22632109 213.51180269 -362.89453125 207.51953125 C-373.66191515 196.89798099 -378.06025265 179.44747795 -378.375 164.875 C-378.33425524 138.54806498 -364.06701806 115.11812702 -346 97 C-344.80310547 95.79923828 -344.80310547 95.79923828 -343.58203125 94.57421875 C-342.72996094 93.72472656 -341.87789062 92.87523437 -341 92 C-340.46753662 91.45029541 -339.93507324 90.90059082 -339.38647461 90.33422852 C-316.15180174 66.54720011 -282.86541921 52.69809601 -252 42 C-251.00274902 41.65340332 -250.00549805 41.30680664 -248.97802734 40.94970703 C-232.24102857 35.20521721 -215.26023408 30.86026428 -198 27 C-196.98067383 26.76684082 -195.96134766 26.53368164 -194.91113281 26.29345703 C-167.86552897 20.16882029 -139.66635287 16.78918186 -112 15 C-111.36399872 14.95869965 -110.72799744 14.91739929 -110.07272339 14.87484741 C-100.81768931 14.28989425 -91.5902258 13.93733948 -82.31640625 13.89453125 C-80.52799197 13.87989831 -78.73958045 13.86492412 -76.95117188 13.84960938 C-74.2254008 13.82653275 -71.5010072 13.81277469 -68.77514648 13.82495117 C-66.07961879 13.83371904 -63.38666548 13.80508268 -60.69140625 13.76953125 C-59.87483047 13.78176224 -59.0582547 13.79399323 -58.2169342 13.80659485 C-55.62818192 13.8155718 -55.62818192 13.8155718 -52 13 C-49.57632903 10.17606054 -49.57632903 10.17606054 -48 7 C-33.80955516 -2.4176277 -16.11563959 -6.55551441 0 0 Z " fill="#FEFCFC" transform="translate(1127,503)"/>
<path d="M0 0 C25.69084927 -0.43096483 47.87396821 2.42732081 72.0625 11.1484375 C73.43317627 11.63038574 73.43317627 11.63038574 74.83154297 12.12207031 C102.4753329 21.87870205 128.57762758 35.19984038 151.0625 54.1484375 C151.94542725 54.88126953 151.94542725 54.88126953 152.84619141 55.62890625 C170.2505842 70.0837956 183.48754045 85.32299813 194.90625 104.8203125 C198.10207489 110.26282631 201.46828058 115.58608738 204.875 120.8984375 C209.79296791 128.58046917 214.67129401 136.28494134 219.5 144.0234375 C220.43356323 145.51955566 220.43356323 145.51955566 221.38598633 147.04589844 C222.64801906 149.06919087 223.90981879 151.09262866 225.17138672 153.11621094 C228.29793424 158.12934291 231.43050161 163.13870993 234.5625 168.1484375 C235.81252926 170.14841921 237.06252926 172.14841922 238.3125 174.1484375 C238.93125 175.1384375 239.55 176.1284375 240.1875 177.1484375 C245.8125 186.1484375 245.8125 186.1484375 247.69067383 189.15356445 C248.93003578 191.13651125 250.16945554 193.11942191 251.40893555 195.10229492 C254.34317426 199.79653557 257.27681113 204.49114897 260.20840454 209.18704224 C261.25598279 210.86501728 262.30377127 212.54286107 263.3515625 214.22070312 C264.6735447 216.3376611 265.99517464 218.45483911 267.31640625 220.57226562 C267.909375 221.52166016 268.50234375 222.47105469 269.11328125 223.44921875 C269.63575439 224.28622314 270.15822754 225.12322754 270.6965332 225.9855957 C271.79354098 227.72257371 272.92292941 229.43908162 274.0625 231.1484375 C274.46745847 233.4307827 274.77415471 235.7310325 275.02734375 238.03515625 C275.10514069 238.72018219 275.18293762 239.40520813 275.26309204 240.11099243 C275.51611465 242.35188324 275.7579899 244.59383309 276 246.8359375 C276.26160472 249.17700367 276.52596543 251.51774921 276.79032898 253.85850525 C276.96669774 255.42273582 277.14208088 256.98707782 277.31648254 258.55152893 C277.91620172 263.92148725 278.56783804 269.28278475 279.26074219 274.64160156 C279.75447962 278.46310281 280.2243467 282.28734268 280.69042969 286.11230469 C280.9493984 288.22551657 281.2134521 290.33810893 281.48144531 292.45019531 C283.94318511 312.11632883 284.42908727 331.36588449 284.0625 351.1484375 C288.37822745 349.10978673 290.76154834 347.80721178 293.1875 343.6484375 C295.12555994 340.36359014 296.80225978 338.19099764 300.0625 336.1484375 C300.7225 336.1484375 301.3825 336.1484375 302.0625 336.1484375 C301.670625 337.2828125 301.27875 338.4171875 300.875 339.5859375 C300.26853092 341.43935236 299.66470891 343.29363406 299.0625 345.1484375 C298.69898438 346.22351563 298.33546875 347.29859375 297.9609375 348.40625 C290.99377453 370.29662657 287.70142904 393.19488761 285.99951172 416.04321289 C285.9017041 417.31028076 285.80389648 418.57734863 285.703125 419.8828125 C285.58759277 421.55682129 285.58759277 421.55682129 285.46972656 423.26464844 C285.08240849 426.00745483 284.47052943 427.78930783 283.0625 430.1484375 C281.14108043 422.8684773 280.71533893 416.0998086 280.75 408.5859375 C280.75193359 406.83192627 280.75193359 406.83192627 280.75390625 405.04248047 C280.87223006 394.06351039 282.10006453 383.32890435 283.78710938 372.49072266 C284.07727424 370.02277788 284.10877077 367.63108476 284.0625 365.1484375 C283.36125 365.9940625 282.66 366.8396875 281.9375 367.7109375 C279.0625 370.1484375 279.0625 370.1484375 275.875 370.2734375 C273.0625 369.1484375 273.0625 369.1484375 271.75 367.2109375 C271.12711698 364.43627678 270.88351087 361.91349857 270.6875 359.0859375 C270.37071456 355.25191372 270.37071456 355.25191372 268.5 351.9609375 C267.695625 351.3628125 266.89125 350.7646875 266.0625 350.1484375 C252.44714508 338.84338036 242.5177288 325.33154812 234.5 309.6484375 C234.16540771 309.00245605 233.83081543 308.35647461 233.48608398 307.69091797 C231.0395574 302.71543379 229.44716281 298.04869808 230.62109375 292.515625 C230.91113281 291.69320313 231.20117188 290.87078125 231.5 290.0234375 C234.44916948 280.17483485 234.25985505 269.0633952 229.91015625 259.65625 C225.50989924 251.63583694 219.2636433 246.4300757 211.9375 241.1484375 C203.42984133 234.81316198 199.48061858 227.54126165 195.8125 217.7109375 C195.39226562 216.63005859 194.97203125 215.54917969 194.5390625 214.43554688 C193.34913125 211.35033206 192.19519813 208.25507437 191.0625 205.1484375 C190.75634766 204.30909668 190.45019531 203.46975586 190.13476562 202.60498047 C187.34142835 194.62570772 186.92146484 187.10211774 187 178.7109375 C187.00451172 177.78861328 187.00902344 176.86628906 187.01367188 175.91601562 C187.02536062 173.66008702 187.04174545 171.40429783 187.0625 169.1484375 C186.04929687 169.63054687 185.03609375 170.11265625 183.9921875 170.609375 C182.64070878 171.24757328 181.28914156 171.88558418 179.9375 172.5234375 C179.27234375 172.84054687 178.6071875 173.15765625 177.921875 173.484375 C171.67600604 176.42360745 166.12978913 178.97308301 159.0625 178.1484375 C156.38942878 176.89143556 154.11087371 175.22507724 151.75 173.4609375 C151.06413818 172.96907959 150.37827637 172.47722168 149.67163086 171.97045898 C147.45749018 170.37786654 145.26032844 168.76344293 143.0625 167.1484375 C141.5820159 166.07894569 140.10024177 165.01123742 138.6171875 163.9453125 C135.59506433 161.77140054 132.57884177 159.58965773 129.56640625 157.40234375 C125.25768591 154.28044545 120.91564609 151.20796476 116.5625 148.1484375 C110.75848686 144.06818272 104.99306524 139.93899229 99.25 135.7734375 C73.02184856 116.79982136 46.29239445 98.20501692 18.47216797 81.625 C15.94901221 80.07889604 13.4950305 78.44934057 11.03515625 76.8046875 C-0.86251725 69.10020603 -10.82132582 66.76251638 -24.8828125 65.6953125 C-43.52295412 64.25034028 -61.57661836 55.15209433 -73.9375 41.1484375 C-77.26004301 36.28015506 -78.68584597 31.25158897 -78.38671875 25.3515625 C-77.292582 19.98553529 -74.43501506 16.32719579 -70.203125 12.99609375 C-61.99589425 8.35252898 -49.18593005 8.19313559 -39.9375 9.1484375 C-37.34085528 9.9124163 -35.32780158 10.84463664 -32.9375 12.1484375 C-32.6590625 11.0965625 -32.6590625 11.0965625 -32.375 10.0234375 C-30.25006936 5.77357622 -28.26593915 3.27207796 -23.9375 1.1484375 C-19.23094758 0.26019109 -14.58100489 0.17942981 -9.80859375 0.16308594 C-6.53778867 0.14639816 -3.27004995 0.0717427 0 0 Z " fill="#FEFEFE" transform="translate(1141.9375,323.8515625)"/>
<path d="M0 0 C1.12148437 0.01353516 1.12148437 0.01353516 2.265625 0.02734375 C4.05223306 0.05024898 5.83866921 0.08607269 7.625 0.125 C6.18115431 5.18236221 3.97840653 9.22660451 1.1875 13.625 C0.74647949 14.32278564 0.30545898 15.02057129 -0.14892578 15.73950195 C-7.98183739 27.9165204 -17.33441966 38.73056661 -27.375 49.125 C-27.97393066 49.74584473 -28.57286133 50.36668945 -29.18994141 51.00634766 C-36.86179283 58.91577899 -44.62979427 66.39439664 -53.375 73.125 C-54.66187563 74.1400962 -55.94830067 75.15576379 -57.234375 76.171875 C-87.34844995 99.79034468 -123.33968861 122.15385593 -163.02099609 119.43115234 C-169.77932307 118.55219134 -175.29191635 115.64624952 -179.640625 110.3828125 C-182.80932728 104.43079065 -182.49005972 97.65802796 -181.375 91.125 C-171.98512389 62.98453278 -139.74917298 40.90851834 -114.37060547 27.80834961 C-81.6165609 11.99391258 -36.39437664 -0.87941802 0 0 Z " fill="#EE3F39" transform="translate(1101.375,831.875)"/>
<path d="M0 0 C2.9969665 0.32110355 3.9234758 0.91442945 5.97021484 3.203125 C7.94894638 5.92965236 9.34454584 8.4971443 10.7265625 11.5625 C11.2009375 12.60664062 11.6753125 13.65078125 12.1640625 14.7265625 C12.64617188 15.80679688 13.12828125 16.88703125 13.625 18 C14.11484375 19.08023438 14.6046875 20.16046875 15.109375 21.2734375 C17.16267902 25.81763492 19.17521366 30.35853538 21 35 C19.7450653 34.4273599 18.49625622 33.84128945 17.25 33.25 C16.20585938 32.76273438 16.20585938 32.76273438 15.140625 32.265625 C11.36774516 30.03494422 9.33795819 28.23970645 8.1640625 23.93359375 C7.98617187 22.77988281 7.80828125 21.62617187 7.625 20.4375 C6.46051799 14.21174983 4.48493458 9.5007683 1.20703125 4.109375 C0 2 0 2 0 0 Z " fill="#EF4B45" transform="translate(625,873)"/>
<path d="M0 0 C2.79978423 1.48255241 3.26968761 3.44590352 4.22851562 6.359375 C4.43798828 7.05289063 4.64746094 7.74640625 4.86328125 8.4609375 C5.09208984 9.14671875 5.32089844 9.8325 5.55664062 10.5390625 C7.18908467 15.67102725 7.18908467 15.67102725 6.05078125 19.0859375 C4.71159319 17.46575908 3.37958435 15.83964407 2.05078125 14.2109375 C1.30828125 13.30601562 0.56578125 12.40109375 -0.19921875 11.46875 C-1.94921875 9.0859375 -1.94921875 9.0859375 -1.94921875 7.0859375 C-2.60921875 7.0859375 -3.26921875 7.0859375 -3.94921875 7.0859375 C-4.07421875 4.7109375 -4.07421875 4.7109375 -3.94921875 2.0859375 C-1.94921875 0.0859375 -1.94921875 0.0859375 0 0 Z " fill="#EF504B" transform="translate(615.94921875,873.9140625)"/>
<path d="M0 0 C-0.66 1.32 -1.32 2.64 -2 4 C-2.66 4 -3.32 4 -4 4 C-5.36161311 4.96113866 -6.69855198 5.95884159 -8 7 C-6.47663111 3.31852519 -4.31953005 0 0 0 Z " fill="#FBDAD9" transform="translate(1444,660)"/>
</svg>
